<svg xmlns="http://www.w3.org/2000/svg" viewBox="0 0 1600 1000" preserveAspectRatio="xMidYMid slice">
  <defs>
    <linearGradient id="sky" x1="0" y1="0" x2="1" y2="1">
      <stop offset="0" stop-color="#eef7fb"/>
      <stop offset="1" stop-color="#d8edf3"/>
    </linearGradient>
    <linearGradient id="glass" x1="0" y1="0" x2="1" y2="1">
      <stop offset="0" stop-color="#95c9d8"/>
      <stop offset="1" stop-color="#f4fbfd"/>
    </linearGradient>
  </defs>
  <rect width="1600" height="1000" fill="url(#sky)"/>
  <path d="M0 840h1600v160H0z" fill="#d6e2ea"/>
  <g opacity=".92">
    <path d="M280 170h830v670H280z" fill="#ffffff"/>
    <path d="M320 220h150v130H320zm190 0h150v130H510zm190 0h150v130H700zm190 0h150v130H890zM320 390h150v130H320zm190 0h150v130H510zm190 0h150v130H700zm190 0h150v130H890zM320 560h150v130H320zm190 0h150v130H510zm190 0h150v130H700zm190 0h150v130H890z" fill="url(#glass)"/>
    <path d="M280 170h830v670H280z" fill="none" stroke="#8fb4c1" stroke-width="12"/>
  </g>
  <g transform="translate(1030 585)">
    <circle cx="95" cy="82" r="54" fill="#0b7fab" opacity=".18"/>
    <path d="M91 45c36 0 63 26 63 62v68H28v-68c0-36 27-62 63-62Z" fill="#2ca58d"/>
    <circle cx="91" cy="28" r="28" fill="#14213d"/>
    <path d="M36 176h118l45 62H0l36-62Z" fill="#0b7fab"/>
    <path d="M171 202h88" stroke="#ffffff" stroke-width="18" stroke-linecap="round"/>
    <path d="M260 182l42 62" stroke="#14213d" stroke-width="14" stroke-linecap="round"/>
  </g>
  <path d="M1240 230l9 24 24 9-24 9-9 24-9-24-24-9 24-9 9-24Z" fill="#2ca58d"/>
  <path d="M1320 340l6 16 16 6-16 6-6 16-6-16-16-6 16-6 6-16Z" fill="#0b7fab"/>
</svg>
